HIERARCHY
ROOT pelvis
{
  OFFSET 0 100 0
  CHANNELS 6 Xposition Yposition Zposition Zrotation Xrotation Yrotation
  JOINT pelvis_right_femur
  {
    OFFSET -10.78128 -3.44521 -0.5502486
    CHANNELS 3 Zrotation Xrotation Yrotation
    JOINT right_femur_tibia
    {
      OFFSET -0.8047443 -44.0398 -0.1307829
      CHANNELS 3 Zrotation Xrotation Yrotation
      JOINT right_tibia_foot
      {
        OFFSET 3.006224 -47.83518 -5
        CHANNELS 3 Zrotation Xrotation Yrotation
        End Site
        {
          OFFSET 0 -5 15
        }
      }
    }
  }
  JOINT pelvis_left_femur
  {
    OFFSET 10.78128 -3.44521 -0.5502486
    CHANNELS 3 Zrotation Xrotation Yrotation
    JOINT left_femur_tibia
    {
      OFFSET 0.8047443 -44.0398 -0.1307829
      CHANNELS 3 Zrotation Xrotation Yrotation
      JOINT left_tibia_foot
      {
        OFFSET -4.370144 -48.10324 -4.275266
        CHANNELS 3 Zrotation Xrotation Yrotation
        End Site
        {
          OFFSET 0 -5 15
        }
      }
    }
  }
  JOINT pelvis_spine1
  {
    OFFSET 0 6.468898 -3.129235
    CHANNELS 3 Zrotation Xrotation Yrotation
    JOINT spine1
    {
      OFFSET 0 23.15396 4.99043
      CHANNELS 3 Zrotation Xrotation Yrotation
      JOINT spine2
      {
        OFFSET 0 20.79997 -5.064912
        CHANNELS 3 Zrotation Xrotation Yrotation
        JOINT neck
        {
          OFFSET 0 14.38658 9.616178
          CHANNELS 3 Zrotation Xrotation Yrotation
          End Site
          {
            OFFSET 0 20 0
          }
        }
      }
      JOINT right_manubrium
      {
        OFFSET -5.722621 16.35077 3.967754
        CHANNELS 3 Zrotation Xrotation Yrotation
        JOINT right_clavicle
        {
          OFFSET -13.16364 1.694482 -4.693211
          CHANNELS 3 Zrotation Xrotation Yrotation
          JOINT right_humerus
          {
            OFFSET -28.5034 -0.3100689 -2.792744
            CHANNELS 3 Zrotation Xrotation Yrotation
            JOINT right_radius
            {
              OFFSET -25.15693 0.02248979 -1.271978
              CHANNELS 3 Zrotation Xrotation Yrotation
              End Site
              {
                OFFSET -15 0 0
              }
            }
          }
        }
      }
      JOINT left_manubrium
      {
        OFFSET 5.722621 16.35077 3.967754
        CHANNELS 3 Zrotation Xrotation Yrotation
        JOINT left_clavicle
        {
          OFFSET 13.16364 1.694482 -4.693211
          CHANNELS 3 Zrotation Xrotation Yrotation
          JOINT left_humerus
          {
            OFFSET 29.39168 -1.063119 -2.237045
            CHANNELS 3 Zrotation Xrotation Yrotation
            JOINT left_radius
            {
              OFFSET 24.59957 -0.9528479 0.9047498
              CHANNELS 3 Zrotation Xrotation Yrotation
              End Site
              {
                OFFSET 15 -0 -0
              }
            }
          }
        }
      }
    }
  }
}
MOTION
Frames: 13
Frame Time: 0.0416666666667
26.47564 104.9106 232.1734 0.8189114 -6.224003 1.537698 1.393897 10.48055 6.685341 1.008514e-08 32.14891 -4.536594e-09 3.219134 -12.64379 -4.101027 -0.7284028 -16.87389 -6.40901 9.369125e-09 18.73046 -2.008706e-09 -6.30298 -9.802055 18.68635 -1.667859 -0.4427678 7.314569 -0.3913954 9.351914 -4.35451 1.991131 21.19035 5.820423 1.608779 -16.89598 7.918769 2.909002 -20.64883 11.32287 81.38449 25.82065 -7.273934 2.432228e-09 2.47194e-09 24.82734 -24.97299 15.35068 14.12839 4.595725 -15.7776 -1.217664 -93.28424 21.2516 24.29984 -2.316983e-09 8.286228e-10 -8.558282 -2.497634 7.523153 15.08586
27.64575 105.1809 238.3651 0.9783686 -6.674835 1.686174 0.9595289 9.008532 6.924109 1.084402e-08 38.93675 -5.208797e-09 3.289156 -10.05245 -4.700978 -1.80828 -14.11414 -7.444632 9.219683e-09 20.17985 -1.248638e-09 -6.199783 -10.07836 18.66061 -1.904449 -0.4155069 6.869934 -0.5061143 9.394744 -4.376942 2.058979 21.35818 5.972789 1.677366 -16.80347 8.126697 3.251473 -19.84509 11.21724 81.70294 25.95129 -7.874636 2.446751e-09 2.412172e-09 23.58505 -24.64998 15.07993 13.72596 4.358239 -15.51776 -1.380338 -92.55117 21.7455 23.38401 -2.515155e-09 7.166929e-10 -8.002169 -2.484678 7.539914 15.13511
28.79519 105.8442 244.3102 1.312339 -7.358366 2.072518 0.462319 6.033331 7.192588 9.300318e-09 46.2347 -3.650431e-09 3.572327 -7.60654 -5.610426 -3.189823 -9.887584 -8.824943 2.923861e-09 20.87262 1.949129e-09 -5.692884 -11.09471 18.90079 -2.290925 -0.3819504 6.310119 -0.6011106 9.50883 -4.558684 2.153194 21.65234 6.148589 1.723947 -16.61522 8.421815 3.580458 -18.9321 11.10596 82.60618 25.9799 -9.145722 1.542407e-09 1.703785e-09 22.06194 -24.16537 14.80955 13.03296 4.262426 -15.53987 -1.728822 -91.56771 22.39722 21.68529 -2.545481e-09 1.19473e-10 -8.267124 -2.347635 7.726646 15.00686
29.88657 106.7471 249.8544 1.678229 -7.972023 2.633551 0.1561523 1.981104 7.378956 5.609986e-09 51.54016 1.107734e-10 3.771353 -6.091281 -6.573728 -4.442294 -4.904674 -10.25505 -6.543866e-09 20.70709 6.11429e-09 -4.91081 -12.54947 19.25687 -2.673996 -0.3453052 5.682523 -0.5978942 9.546112 -4.851385 2.265927 21.93014 6.245572 1.708505 -16.37136 8.711755 3.7819 -17.98687 10.9306 83.49674 25.8859 -10.71096 1.488528e-10 7.591149e-10 20.40834 -23.19396 14.46718 11.98836 4.324004 -15.75784 -2.127934 -90.19773 23.14635 19.43844 -2.434237e-09 -7.141328e-10 -9.214006 -2.059916 8.147055 14.60815
30.89246 107.7016 255.0761 1.895539 -8.23528 3.277419 0.1895786 -2.854219 7.308131 3.235046e-09 53.56363 2.945376e-09 3.72264 -5.355893 -7.435386 -5.256749 0.3668208 -11.39258 -1.248952e-08 19.70463 8.368429e-09 -4.254156 -14.20472 19.355 -2.901914 -0.3299731 4.988272 -0.4511391 9.45309 -5.265756 2.379598 22.12921 6.275574 1.643482 -16.21767 8.977034 3.803129 -17.1025 10.70926 84.54763 25.69867 -12.47042 -6.814157e-10 3.839103e-10 18.77633 -22.0099 14.17644 10.89423 4.573197 -16.20034 -2.471048 -88.82544 23.73609 17.00538 -2.429562e-09 -1.246137e-09 -10.69586 -1.61163 8.705225 13.97681
31.80701 108.4438 260.1151 1.991336 -8.097684 3.936202 0.4056459 -7.726553 6.872599 1.929213e-09 51.67476 4.508584e-09 3.469731 -5.411257 -7.985687 -5.609175 4.921982 -12.05246 -1.543267e-08 17.52253 8.708889e-09 -3.771466 -15.99677 19.22662 -3.016654 -0.2987993 4.341852 -0.212808 9.208691 -5.713463 2.460017 22.26105 6.276453 1.576084 -16.13754 9.162249 3.61476 -16.36981 10.47495 85.52194 25.49315 -14.09327 -1.134194e-09 2.942955e-10 17.32236 -21.02654 13.91505 10.02419 5.05694 -16.85238 -2.696793 -87.49296 24.03214 14.4588 -2.325766e-09 -1.494865e-09 -12.69901 -0.9875188 9.292056 13.08692
32.60248 108.775 265.0405 1.979339 -7.662007 4.540547 0.7642525 -12.52375 6.164964 8.434494e-10 46.39143 5.434736e-09 2.939498 -6.162888 -8.250709 -5.641519 8.774112 -12.36029 -1.729214e-08 15.08705 8.056438e-09 -3.436696 -17.76681 18.9164 -3.032104 -0.227167 3.743404 0.09799003 8.821574 -6.15247 2.514998 22.34263 6.230137 1.517313 -16.08222 9.245062 3.264681 -15.65656 10.22033 86.19737 25.32061 -15.56578 -1.513501e-09 2.295794e-10 15.82631 -20.05981 13.58098 9.216743 5.710277 -17.64474 -2.809566 -85.97436 24.11813 11.67114 -2.01902e-09 -1.625916e-09 -15.11364 -0.1702449 9.928456 11.90119
33.28354 108.6303 270.132 1.787448 -6.941323 5.049439 1.194341 -16.99255 5.181946 2.172446e-09 38.84263 3.865521e-09 2.302484 -6.910232 -8.347645 -5.375864 11.9091 -12.17012 -1.346477e-08 13.08892 5.21476e-09 -3.753372 -19.36458 18.13563 -2.904141 -0.09424799 3.163619 0.4467214 8.297248 -6.574358 2.563332 22.46036 6.209198 1.489253 -16.11645 9.304296 2.832604 -14.90201 9.983 87.13253 25.24091 -16.96379 -9.688144e-10 7.579557e-10 14.31224 -19.55262 13.37716 8.765862 6.495653 -18.5123 -2.743033 -84.84928 23.95224 8.893588 -1.745515e-09 -1.252902e-09 -17.63661 0.6816219 10.40608 10.69161
33.8101 107.9575 275.2421 1.665329 -6.316496 5.454661 1.555108 -20.84741 4.212648 6.043819e-10 30.68491 4.228078e-09 1.480102 -8.05059 -8.279904 -5.153956 14.26383 -11.99286 -1.445119e-08 11.95627 3.990501e-09 -3.864969 -20.75997 17.61755 -2.821889 0.09567911 2.704998 0.7615619 7.782868 -6.889576 2.597478 22.64219 6.153419 1.501331 -16.09651 9.272867 2.39436 -14.13001 9.776958 87.63351 25.2614 -18.15525 -1.362404e-09 5.481953e-10 12.66816 -18.9259 12.94328 8.190792 7.274519 -19.36742 -2.65922 -83.52332 23.78988 5.994275 -1.084964e-09 -1.307058e-09 -20.18517 1.663178 10.98076 9.288088
34.18353 106.8951 280.3916 1.491851 -5.760835 5.733476 1.913446 -23.90016 3.364564 -3.84341e-10 23.45345 3.937415e-09 0.5374563 -8.9352 -8.173332 -4.92323 16.09752 -11.81859 -1.397698e-08 12.07648 2.613624e-09 -4.146769 -21.68296 17.06057 -2.687722 0.2932952 2.294142 1.036684 7.291352 -7.101145 2.642183 22.84583 6.080295 1.530345 -16.10852 9.22402 2.027103 -13.34475 9.594353 87.99412 25.34669 -19.11862 -1.500454e-09 4.822594e-10 11.03248 -18.26721 12.45142 7.646723 7.911258 -20.03572 -2.524172 -82.42555 23.65281 3.509551 -4.74692e-10 -1.270413e-09 -22.14973 2.576155 11.5187 8.004536
34.43031 105.6997 285.6662 1.219105 -5.369506 5.907228 2.36259 -26.01019 2.866916 7.184114e-10 18.77373 2.439006e-09 -0.4353361 -9.222693 -8.185267 -4.683682 17.71917 -11.7539 -8.937077e-09 13.91091 3.708835e-10 -4.771766 -21.9155 16.36652 -2.444519 0.4528581 1.893715 1.259059 6.875967 -7.214102 2.73013 23.04797 5.977635 1.535928 -16.17702 9.222937 1.804512 -12.57514 9.433163 88.43491 25.40468 -19.86657 -6.918803e-10 1.049594e-09 9.562957 -17.51128 12.03213 7.140471 8.257707 -20.36573 -2.362654 -81.85438 23.66708 1.883609 -2.383093e-10 -8.65509e-10 -23.03773 3.21452 11.96341 7.134904
34.62426 104.7111 291.2471 0.8518771 -5.209492 6.042993 2.865127 -26.93832 2.799393 4.944472e-09 18.1046 -7.072088e-10 -1.252126 -8.451208 -8.377821 -4.468079 19.17012 -11.80191 3.219631e-09 17.38318 -3.844606e-09 -5.85383 -21.38058 15.49883 -2.096497 0.5436106 1.502516 1.390544 6.601682 -7.228985 2.867771 23.25788 5.887458 1.516192 -16.33596 9.327383 1.787468 -11.90055 9.316004 89.24224 25.38719 -20.37796 1.551146e-09 2.522739e-09 8.464294 -16.89569 11.84327 6.844468 8.233417 -20.28111 -2.195995 -82.16033 23.88109 1.486203 -5.926464e-10 1.244376e-10 -22.53012 3.408975 12.21615 6.934799
34.80048 104.1659 297.0607 0.5197552 -5.370859 6.150648 3.456697 -26.37692 3.151349 9.553157e-09 20.16218 -3.777971e-09 -2.099664 -7.409642 -8.566192 -4.29294 19.80465 -12.00022 1.543005e-08 22.50586 -8.421952e-09 -6.780918 -20.04543 14.90044 -1.707506 0.5652761 1.268973 1.428303 6.54918 -7.10192 3.015865 23.42356 5.735691 1.484283 -16.49389 9.394965 1.889385 -11.45327 9.264424 89.75732 25.28216 -20.48669 3.796265e-09 3.959536e-09 7.745838 -16.1415 11.65649 6.52021 7.856342 -19.89177 -2.110846 -82.81527 24.21089 2.154701 -1.169716e-09 1.038394e-09 -20.9566 3.375305 12.45801 7.068923
